ffmpeg started on 2025-06-07 at 17:13:41
Report written to "D:\Convert\FFMetrics\reports\psnr_report-6.txt"
Log level: 32
Command line:
ffmpeg -hide_banner -nostdin -i "G:\\\xc0\xed\xe8\xec\xe5\\\xce\xed\xe3\xee\xe8\xed\xe3\xe8\\!_36_\xce\xf1\xe5\xed\xfc_2024\\DreamCast\\\xdd\xe9, \xd2\xee\xec\xe1\xee!\\\xd2\xc2-1\\[DC] Ooi! Tonbo - 06_Telegram_HEVC.mkv" -i "G:\\\xc0\xed\xe8\xec\xe5\\\xce\xed\xe3\xee\xe8\xed\xe3\xe8\\!_36_\xce\xf1\xe5\xed\xfc_2024\\DreamCast\\\xdd\xe9, \xd2\xee\xec\xe1\xee!\\\xd2\xc2-1\\[DC] Ooi! Tonbo - 06_Telegram.mp4" -lavfi "[0:v]settb=AVTB,setpts=PTS-STARTPTS,format=pix_fmts=yuv420p10,fps=24000/1001,scale=1920:1080:flags=bicubic[main];[1:v]settb=AVTB,setpts=PTS-STARTPTS,format=pix_fmts=yuv420p,fps=24000/1001,scale=1920:1080:flags=bicubic[ref];[main][ref]psnr=eof_action=endall:stats_file='D\\:/Convert/FFMetrics/logs/psnr_logfile-6.txt'" -f null -
Input #0, matroska,webm, from 'G:\Аниме\Онгоинги\!_36_Осень_2024\DreamCast\Эй, Томбо!\ТВ-1\[DC] Ooi! Tonbo - 06_Telegram_HEVC.mkv':
  Metadata:
    COMPATIBLE_BRANDS: isomiso2avc1mp41
    MAJOR_BRAND     : isom
    MINOR_VERSION   : 512
    ENCODER         : Lavf61.7.100
  Duration: 00:24:20.82, start: -0.021000, bitrate: 1126 kb/s
  Stream #0:0: Video: hevc (Main 10), yuv420p10le(tv, bt709, progressive), 1920x1080 [SAR 1:1 DAR 16:9], 23.98 fps, 23.98 tbr, 1k tbn (default)
      Metadata:
        HANDLER_NAME    : VideoHandler
        VENDOR_ID       : [0][0][0][0]
        ENCODER         : Lavc61.19.100 libx265
        BPS             : 929786
        DURATION        : 00:24:19.624708333
        NUMBER_OF_FRAMES: 34996
        NUMBER_OF_BYTES : 169642401
        _STATISTICS_WRITING_APP: mkvpropedit v66.0.0 ('Josie') 64-bit
        _STATISTICS_WRITING_DATE_UTC: 2025-06-05 14:15:58
        _STATISTICS_TAGS: BPS DURATION NUMBER_OF_FRAMES NUMBER_OF_BYTES
  Stream #0:1: Audio: aac (LC), 48000 Hz, stereo, fltp (default)
      Metadata:
        HANDLER_NAME    : SoundHandler
        VENDOR_ID       : [0][0][0][0]
        ENCODER         : Lavc61.19.100 aac
        BPS             : 192980
        DURATION        : 00:24:20.821000000
        NUMBER_OF_FRAMES: 68477
        NUMBER_OF_BYTES : 35238750
        _STATISTICS_WRITING_APP: mkvpropedit v66.0.0 ('Josie') 64-bit
        _STATISTICS_WRITING_DATE_UTC: 2025-06-05 14:15:58
        _STATISTICS_TAGS: BPS DURATION NUMBER_OF_FRAMES NUMBER_OF_BYTES
Input #1, mov,mp4,m4a,3gp,3g2,mj2, from 'G:\Аниме\Онгоинги\!_36_Осень_2024\DreamCast\Эй, Томбо!\ТВ-1\[DC] Ooi! Tonbo - 06_Telegram.mp4':
  Metadata:
    major_brand     : isom
    minor_version   : 512
    compatible_brands: isomiso2avc1mp41
    encoder         : Lavf60.16.100
  Duration: 00:24:20.76, start: 0.000000, bitrate: 3187 kb/s
  Stream #1:0[0x1](und): Video: h264 (High) (avc1 / 0x31637661), yuv420p(tv, bt709, progressive), 1920x1080 [SAR 1:1 DAR 16:9], 3041 kb/s, 23.98 fps, 23.98 tbr, 24k tbn (default)
      Metadata:
        handler_name    : VideoHandler
        vendor_id       : [0][0][0][0]
        encoder         : Lavc60.31.102 h264_qsv
  Stream #1:1[0x2](und): Audio: aac (HE-AACv2) (mp4a / 0x6134706D), 48000 Hz, stereo, fltp, 144 kb/s (default)
      Metadata:
        handler_name    : SoundHandler
        vendor_id       : [0][0][0][0]
Stream mapping:
  Stream #0:0 (hevc) -> settb:default
  Stream #1:0 (h264) -> settb:default
  psnr:default -> Stream #0:0 (wrapped_avframe)
  Stream #0:1 -> #0:1 (aac (native) -> pcm_s16le (native))
Output #0, null, to 'pipe:':
  Metadata:
    COMPATIBLE_BRANDS: isomiso2avc1mp41
    MAJOR_BRAND     : isom
    MINOR_VERSION   : 512
    encoder         : Lavf61.7.100
  Stream #0:0: Video: wrapped_avframe, yuv420p10le(tv, bt709, progressive), 1920x1080 [SAR 1:1 DAR 16:9], q=2-31, 200 kb/s, 23.98 fps, 23.98 tbn
      Metadata:
        encoder         : Lavc61.19.100 wrapped_avframe
  Stream #0:1: Audio: pcm_s16le, 48000 Hz, stereo, s16, 1536 kb/s (default)
      Metadata:
        HANDLER_NAME    : SoundHandler
        VENDOR_ID       : [0][0][0][0]
        _STATISTICS_TAGS: BPS DURATION NUMBER_OF_FRAMES NUMBER_OF_BYTES
        BPS             : 192980
        DURATION        : 00:24:20.821000000
        NUMBER_OF_FRAMES: 68477
        NUMBER_OF_BYTES : 35238750
        _STATISTICS_WRITING_APP: mkvpropedit v66.0.0 ('Josie') 64-bit
        _STATISTICS_WRITING_DATE_UTC: 2025-06-05 14:15:58
        encoder         : Lavc61.19.100 pcm_s16le
frame=  173 fps=0.0 q=-0.0 size=N/A time=00:00:07.21 bitrate=N/A speed=13.7x    frame=  409 fps=389 q=-0.0 size=N/A time=00:00:17.05 bitrate=N/A speed=16.2x    frame=  653 fps=417 q=-0.0 size=N/A time=00:00:27.23 bitrate=N/A speed=17.4x    frame=  936 fps=448 q=-0.0 size=N/A time=00:00:39.03 bitrate=N/A speed=18.7x    frame= 1213 fps=467 q=-0.0 size=N/A time=00:00:50.59 bitrate=N/A speed=19.5x    frame= 1481 fps=477 q=-0.0 size=N/A time=00:01:01.77 bitrate=N/A speed=19.9x    frame= 1766 fps=486 q=-0.0 size=N/A time=00:01:13.65 bitrate=N/A speed=20.3x    frame= 1998 fps=482 q=-0.0 size=N/A time=00:01:23.33 bitrate=N/A speed=20.1x    frame= 2179 fps=468 q=-0.0 size=N/A time=00:01:30.88 bitrate=N/A speed=19.5x    frame= 2385 fps=462 q=-0.0 size=N/A time=00:01:39.47 bitrate=N/A speed=19.2x    frame= 2616 fps=459 q=-0.0 size=N/A time=00:01:49.10 bitrate=N/A speed=19.2x    frame= 2824 fps=455 q=-0.0 size=N/A time=00:01:57.78 bitrate=N/A speed=  19x    frame= 3052 fps=454 q=-0.0 size=N/A time=00:02:07.29 bitrate=N/A speed=  19x    frame= 3259 fps=450 q=-0.0 size=N/A time=00:02:15.92 bitrate=N/A speed=18.8x    frame= 3485 fps=449 q=-0.0 size=N/A time=00:02:25.35 bitrate=N/A speed=18.7x    frame= 3701 fps=448 q=-0.0 size=N/A time=00:02:34.36 bitrate=N/A speed=18.7x    frame= 3907 fps=445 q=-0.0 size=N/A time=00:02:42.95 bitrate=N/A speed=18.5x    frame= 4162 fps=448 q=-0.0 size=N/A time=00:02:53.59 bitrate=N/A speed=18.7x    frame= 4434 fps=452 q=-0.0 size=N/A time=00:03:04.93 bitrate=N/A speed=18.9x    frame= 4720 fps=457 q=-0.0 size=N/A time=00:03:16.86 bitrate=N/A speed=  19x    frame= 4982 fps=459 q=-0.0 size=N/A time=00:03:27.79 bitrate=N/A speed=19.2x    frame= 5211 fps=459 q=-0.0 size=N/A time=00:03:37.34 bitrate=N/A speed=19.1x    frame= 5434 fps=457 q=-0.0 size=N/A time=00:03:46.64 bitrate=N/A speed=19.1x    frame= 5657 fps=457 q=-0.0 size=N/A time=00:03:55.94 bitrate=N/A speed=  19x    frame= 5894 fps=456 q=-0.0 size=N/A time=00:04:05.82 bitrate=N/A speed=  19x    frame= 6121 fps=456 q=-0.0 size=N/A time=00:04:15.29 bitrate=N/A speed=  19x    frame= 6352 fps=456 q=-0.0 size=N/A time=00:04:24.93 bitrate=N/A speed=  19x    frame= 6594 fps=456 q=-0.0 size=N/A time=00:04:35.02 bitrate=N/A speed=  19x    frame= 6872 fps=459 q=-0.0 size=N/A time=00:04:46.61 bitrate=N/A speed=19.1x    frame= 7139 fps=461 q=-0.0 size=N/A time=00:04:57.75 bitrate=N/A speed=19.2x    frame= 7429 fps=464 q=-0.0 size=N/A time=00:05:09.85 bitrate=N/A speed=19.4x    frame= 7707 fps=467 q=-0.0 size=N/A time=00:05:21.44 bitrate=N/A speed=19.5x    frame= 7980 fps=468 q=-0.0 size=N/A time=00:05:32.83 bitrate=N/A speed=19.5x    frame= 8267 fps=471 q=-0.0 size=N/A time=00:05:44.80 bitrate=N/A speed=19.6x    frame= 8537 fps=473 q=-0.0 size=N/A time=00:05:56.06 bitrate=N/A speed=19.7x    frame= 8812 fps=474 q=-0.0 size=N/A time=00:06:07.53 bitrate=N/A speed=19.8x    frame= 9075 fps=475 q=-0.0 size=N/A time=00:06:18.50 bitrate=N/A speed=19.8x    frame= 9351 fps=477 q=-0.0 size=N/A time=00:06:30.01 bitrate=N/A speed=19.9x    frame= 9603 fps=477 q=-0.0 size=N/A time=00:06:40.52 bitrate=N/A speed=19.9x    frame= 9829 fps=476 q=-0.0 size=N/A time=00:06:49.95 bitrate=N/A speed=19.9x    frame=10083 fps=476 q=-0.0 size=N/A time=00:07:00.54 bitrate=N/A speed=19.9x    frame=10348 fps=477 q=-0.0 size=N/A time=00:07:11.59 bitrate=N/A speed=19.9x    frame=10600 fps=478 q=-0.0 size=N/A time=00:07:22.10 bitrate=N/A speed=19.9x    frame=10846 fps=478 q=-0.0 size=N/A time=00:07:32.36 bitrate=N/A speed=19.9x    frame=11110 fps=478 q=-0.0 size=N/A time=00:07:43.37 bitrate=N/A speed=19.9x    frame=11391 fps=480 q=-0.0 size=N/A time=00:07:55.14 bitrate=N/A speed=  20x    frame=11676 fps=481 q=-0.0 size=N/A time=00:08:06.98 bitrate=N/A speed=20.1x    frame=11924 fps=481 q=-0.0 size=N/A time=00:08:17.33 bitrate=N/A speed=20.1x    frame=12200 fps=483 q=-0.0 size=N/A time=00:08:28.84 bitrate=N/A speed=20.1x    frame=12472 fps=483 q=-0.0 size=N/A time=00:08:40.18 bitrate=N/A speed=20.2x    frame=12736 fps=484 q=-0.0 size=N/A time=00:08:51.19 bitrate=N/A speed=20.2x    frame=12993 fps=484 q=-0.0 size=N/A time=00:09:01.91 bitrate=N/A speed=20.2x    frame=13270 fps=485 q=-0.0 size=N/A time=00:09:13.46 bitrate=N/A speed=20.2x    frame=13546 fps=486 q=-0.0 size=N/A time=00:09:24.98 bitrate=N/A speed=20.3x    frame=13814 fps=487 q=-0.0 size=N/A time=00:09:36.15 bitrate=N/A speed=20.3x    frame=14072 fps=487 q=-0.0 size=N/A time=00:09:46.91 bitrate=N/A speed=20.3x    frame=14331 fps=487 q=-0.0 size=N/A time=00:09:57.72 bitrate=N/A speed=20.3x    frame=14585 fps=487 q=-0.0 size=N/A time=00:10:08.31 bitrate=N/A speed=20.3x    frame=14841 fps=487 q=-0.0 size=N/A time=00:10:18.99 bitrate=N/A speed=20.3x    frame=15065 fps=486 q=-0.0 size=N/A time=00:10:28.33 bitrate=N/A speed=20.3x    frame=15339 fps=487 q=-0.0 size=N/A time=00:10:39.76 bitrate=N/A speed=20.3x    frame=15598 fps=487 q=-0.0 size=N/A time=00:10:50.56 bitrate=N/A speed=20.3x    frame=15828 fps=487 q=-0.0 size=N/A time=00:11:00.15 bitrate=N/A speed=20.3x    frame=16053 fps=486 q=-0.0 size=N/A time=00:11:09.54 bitrate=N/A speed=20.3x    frame=16315 fps=486 q=-0.0 size=N/A time=00:11:20.47 bitrate=N/A speed=20.3x    frame=16590 fps=487 q=-0.0 size=N/A time=00:11:31.94 bitrate=N/A speed=20.3x    frame=16870 fps=488 q=-0.0 size=N/A time=00:11:43.61 bitrate=N/A speed=20.3x    frame=17139 fps=488 q=-0.0 size=N/A time=00:11:54.83 bitrate=N/A speed=20.4x    frame=17411 fps=489 q=-0.0 size=N/A time=00:12:06.18 bitrate=N/A speed=20.4x    frame=17646 fps=488 q=-0.0 size=N/A time=00:12:15.98 bitrate=N/A speed=20.4x    frame=17893 fps=488 q=-0.0 size=N/A time=00:12:26.28 bitrate=N/A speed=20.4x    frame=18144 fps=488 q=-0.0 size=N/A time=00:12:36.75 bitrate=N/A speed=20.4x    frame=18393 fps=488 q=-0.0 size=N/A time=00:12:47.14 bitrate=N/A speed=20.4x    frame=18663 fps=489 q=-0.0 size=N/A time=00:12:58.40 bitrate=N/A speed=20.4x    frame=18935 fps=489 q=-0.0 size=N/A time=00:13:09.74 bitrate=N/A speed=20.4x    frame=19203 fps=490 q=-0.0 size=N/A time=00:13:20.92 bitrate=N/A speed=20.4x    frame=19479 fps=490 q=-0.0 size=N/A time=00:13:32.43 bitrate=N/A speed=20.4x    frame=19749 fps=491 q=-0.0 size=N/A time=00:13:43.69 bitrate=N/A speed=20.5x    frame=20000 fps=491 q=-0.0 size=N/A time=00:13:54.16 bitrate=N/A speed=20.5x    frame=20257 fps=491 q=-0.0 size=N/A time=00:14:04.88 bitrate=N/A speed=20.5x    frame=20502 fps=490 q=-0.0 size=N/A time=00:14:15.10 bitrate=N/A speed=20.5x    frame=20720 fps=490 q=-0.0 size=N/A time=00:14:24.19 bitrate=N/A speed=20.4x    frame=20983 fps=490 q=-0.0 size=N/A time=00:14:35.16 bitrate=N/A speed=20.4x    frame=21198 fps=489 q=-0.0 size=N/A time=00:14:44.13 bitrate=N/A speed=20.4x    frame=21475 fps=490 q=-0.0 size=N/A time=00:14:55.68 bitrate=N/A speed=20.4x    frame=21697 fps=489 q=-0.0 size=N/A time=00:15:04.94 bitrate=N/A speed=20.4x    frame=21888 fps=488 q=-0.0 size=N/A time=00:15:12.91 bitrate=N/A speed=20.3x    frame=22117 fps=487 q=-0.0 size=N/A time=00:15:22.46 bitrate=N/A speed=20.3x    frame=22354 fps=487 q=-0.0 size=N/A time=00:15:32.34 bitrate=N/A speed=20.3x    frame=22612 fps=487 q=-0.0 size=N/A time=00:15:43.10 bitrate=N/A speed=20.3x    frame=22864 fps=487 q=-0.0 size=N/A time=00:15:53.61 bitrate=N/A speed=20.3x    frame=23108 fps=487 q=-0.0 size=N/A time=00:16:03.79 bitrate=N/A speed=20.3x    frame=23343 fps=486 q=-0.0 size=N/A time=00:16:13.59 bitrate=N/A speed=20.3x    frame=23590 fps=486 q=-0.0 size=N/A time=00:16:23.89 bitrate=N/A speed=20.3x    frame=23870 fps=487 q=-0.0 size=N/A time=00:16:35.57 bitrate=N/A speed=20.3x    frame=24091 fps=486 q=-0.0 size=N/A time=00:16:44.79 bitrate=N/A speed=20.3x    frame=24317 fps=486 q=-0.0 size=N/A time=00:16:54.22 bitrate=N/A speed=20.3x    frame=24566 fps=486 q=-0.0 size=N/A time=00:17:04.60 bitrate=N/A speed=20.3x    frame=24822 fps=486 q=-0.0 size=N/A time=00:17:15.28 bitrate=N/A speed=20.3x    frame=25086 fps=486 q=-0.0 size=N/A time=00:17:26.29 bitrate=N/A speed=20.3x    frame=25307 fps=486 q=-0.0 size=N/A time=00:17:35.51 bitrate=N/A speed=20.3x    frame=25523 fps=485 q=-0.0 size=N/A time=00:17:44.52 bitrate=N/A speed=20.2x    frame=25797 fps=485 q=-0.0 size=N/A time=00:17:55.94 bitrate=N/A speed=20.2x    frame=26080 fps=486 q=-0.0 size=N/A time=00:18:07.75 bitrate=N/A speed=20.3x    frame=26333 fps=486 q=-0.0 size=N/A time=00:18:18.30 bitrate=N/A speed=20.3x    frame=26602 fps=486 q=-0.0 size=N/A time=00:18:29.52 bitrate=N/A speed=20.3x    frame=26844 fps=486 q=-0.0 size=N/A time=00:18:39.61 bitrate=N/A speed=20.3x    frame=27088 fps=486 q=-0.0 size=N/A time=00:18:49.79 bitrate=N/A speed=20.3x    frame=27330 fps=486 q=-0.0 size=N/A time=00:18:59.88 bitrate=N/A speed=20.3x    frame=27583 fps=486 q=-0.0 size=N/A time=00:19:10.44 bitrate=N/A speed=20.3x    frame=27824 fps=486 q=-0.0 size=N/A time=00:19:20.49 bitrate=N/A speed=20.3x    frame=28051 fps=485 q=-0.0 size=N/A time=00:19:29.96 bitrate=N/A speed=20.2x    frame=28292 fps=485 q=-0.0 size=N/A time=00:19:40.01 bitrate=N/A speed=20.2x    frame=28547 fps=485 q=-0.0 size=N/A time=00:19:50.64 bitrate=N/A speed=20.2x    frame=28810 fps=486 q=-0.0 size=N/A time=00:20:01.61 bitrate=N/A speed=20.3x    frame=29027 fps=485 q=-0.0 size=N/A time=00:20:10.66 bitrate=N/A speed=20.2x    frame=29279 fps=485 q=-0.0 size=N/A time=00:20:21.17 bitrate=N/A speed=20.2x    frame=29546 fps=485 q=-0.0 size=N/A time=00:20:32.31 bitrate=N/A speed=20.2x    frame=29784 fps=485 q=-0.0 size=N/A time=00:20:42.24 bitrate=N/A speed=20.2x    frame=29992 fps=484 q=-0.0 size=N/A time=00:20:50.91 bitrate=N/A speed=20.2x    frame=30198 fps=484 q=-0.0 size=N/A time=00:20:59.50 bitrate=N/A speed=20.2x    frame=30451 fps=484 q=-0.0 size=N/A time=00:21:10.06 bitrate=N/A speed=20.2x    frame=30662 fps=483 q=-0.0 size=N/A time=00:21:18.86 bitrate=N/A speed=20.2x    frame=30945 fps=484 q=-0.0 size=N/A time=00:21:30.66 bitrate=N/A speed=20.2x    frame=31197 fps=484 q=-0.0 size=N/A time=00:21:41.17 bitrate=N/A speed=20.2x    frame=31435 fps=484 q=-0.0 size=N/A time=00:21:51.10 bitrate=N/A speed=20.2x    frame=31657 fps=483 q=-0.0 size=N/A time=00:22:00.36 bitrate=N/A speed=20.2x    frame=31916 fps=483 q=-0.0 size=N/A time=00:22:11.16 bitrate=N/A speed=20.2x    frame=32174 fps=483 q=-0.0 size=N/A time=00:22:21.92 bitrate=N/A speed=20.2x    frame=32412 fps=483 q=-0.0 size=N/A time=00:22:31.85 bitrate=N/A speed=20.2x    frame=32637 fps=483 q=-0.0 size=N/A time=00:22:41.23 bitrate=N/A speed=20.1x    frame=32860 fps=483 q=-0.0 size=N/A time=00:22:50.53 bitrate=N/A speed=20.1x    frame=33089 fps=482 q=-0.0 size=N/A time=00:23:00.08 bitrate=N/A speed=20.1x    frame=33294 fps=482 q=-0.0 size=N/A time=00:23:08.63 bitrate=N/A speed=20.1x    frame=33507 fps=481 q=-0.0 size=N/A time=00:23:17.52 bitrate=N/A speed=20.1x    frame=33722 fps=481 q=-0.0 size=N/A time=00:23:26.48 bitrate=N/A speed=  20x    frame=33946 fps=480 q=-0.0 size=N/A time=00:23:35.83 bitrate=N/A speed=  20x    frame=34173 fps=480 q=-0.0 size=N/A time=00:23:45.29 bitrate=N/A speed=  20x    frame=34378 fps=479 q=-0.0 size=N/A time=00:23:53.84 bitrate=N/A speed=  20x    frame=34571 fps=479 q=-0.0 size=N/A time=00:24:01.89 bitrate=N/A speed=  20x    frame=34809 fps=479 q=-0.0 size=N/A time=00:24:11.82 bitrate=N/A speed=  20x    [Parsed_psnr_10 @ 000001e9c1197880] PSNR y:48.542363 u:50.220474 v:50.726006 average:49.093974 min:40.140375 max:inf
[out#0/null @ 000001e9bef44200] video:15037KiB audio:273908KiB subtitle:0KiB other streams:0KiB global headers:0KiB muxing overhead: unknown
frame=34996 fps=479 q=-0.0 Lsize=N/A time=00:24:19.62 bitrate=N/A speed=  20x    
